<svg width="36" height="30" viewBox="0 0 36 30" fill="none" xmlns="http://www.w3.org/2000/svg">
<g clip-path="url(#clip0_404_219)">
<path d="M12.8212 21.8925L10.6787 20.6075L13.2925 16.25H7.04248L11.9287 8.10751L14.0712 9.39251L11.4575 13.75H17.7075L12.8212 21.8925Z" fill="white"/>
<path d="M35.5 3.75H34.25V0H31.75V3.75H30.5V11.25H31.75V25.625C31.75 26.1223 31.5525 26.5992 31.2008 26.9508C30.8492 27.3025 30.3723 27.5 29.875 27.5C29.3777 27.5 28.9008 27.3025 28.5492 26.9508C28.1975 26.5992 28 26.1223 28 25.625V15C28 14.6685 27.8683 14.3505 27.6339 14.1161C27.3995 13.8817 27.0815 13.75 26.75 13.75H21.75V1.25C21.75 0.918479 21.6183 0.600537 21.3839 0.366117C21.1495 0.131696 20.8315 0 20.5 0H4.25C3.91848 0 3.60054 0.131696 3.36612 0.366117C3.1317 0.600537 3 0.918479 3 1.25V27.5H1.75C1.05964 27.5 0.5 28.0596 0.5 28.75V28.75C0.5 29.4404 1.05964 30 1.75 30H23C23.6904 30 24.25 29.4404 24.25 28.75V28.75C24.25 28.0596 23.6904 27.5 23 27.5H21.75V16.25H25.5V25.625C25.5 26.7853 25.9609 27.8981 26.7814 28.7186C27.6019 29.5391 28.7147 30 29.875 30C31.0353 30 32.1481 29.5391 32.9686 28.7186C33.7891 27.8981 34.25 26.7853 34.25 25.625V11.25H35.5V3.75ZM19.25 27.5H5.5V2.5H19.25V27.5Z" fill="white"/>
</g>
<defs>
<clipPath id="clip0_404_219">
<rect width="36" height="30" fill="white"/>
</clipPath>
</defs>
</svg>
