<svg width="40" height="34" viewBox="0 0 40 34" fill="none" xmlns="http://www.w3.org/2000/svg">
<g clip-path="url(#clip0_404_184)">
<path d="M24.2844 31.1033H21.6314V6.78948H32.8123L28.0763 14.3045C27.8361 14.6856 27.9503 15.1894 28.3315 15.4295C28.4666 15.5147 28.6169 15.5551 28.7656 15.5551C29.0364 15.5551 29.3013 15.4203 29.4563 15.1744L33.5637 8.6567L37.6709 15.1744C37.9112 15.5555 38.415 15.6697 38.796 15.4295C39.177 15.1894 39.2911 14.6856 39.051 14.3045L34.3152 6.78948H34.375C35.0732 6.78948 35.6393 6.2234 35.6393 5.52522C35.6393 4.82713 35.0733 4.26105 34.375 4.26105H25.0745C24.5493 3.49705 23.7742 2.91861 22.8667 2.644C22.737 1.17435 21.5035 0.0217438 20.0001 0.0217438C18.4966 0.0217438 17.2631 1.17435 17.1334 2.644C16.2259 2.91861 15.4508 3.49705 14.9256 4.26105H5.62512C4.92686 4.26105 4.36077 4.82713 4.36077 5.52522C4.36077 6.2234 4.92677 6.78948 5.62512 6.78948H5.68495L0.948946 14.3045C0.708772 14.6856 0.823033 15.1894 1.20408 15.4295C1.33921 15.5147 1.48956 15.5551 1.63816 15.5551C1.90895 15.5551 2.17399 15.4203 2.32903 15.1744L6.43642 8.6567L10.5437 15.1744C10.7839 15.5555 11.2876 15.6697 11.6687 15.4295C12.0498 15.1894 12.164 14.6856 11.9239 14.3045L7.18799 6.78948H18.3689V31.1031H15.7159C14.1282 31.1031 12.8409 32.3904 12.8409 33.9782H27.1593C27.1593 32.3904 25.8721 31.1033 24.2844 31.1033Z" fill="white"/>
<path d="M6.43635 22.6936C3.27393 22.6936 0.690111 20.164 0.602306 17.0225H12.2704C12.1826 20.164 9.59869 22.6936 6.43635 22.6936Z" stroke="white" stroke-width="1.2"/>
<path d="M33.5639 22.6936C30.4014 22.6936 27.8176 20.164 27.7297 17.0225H39.3978C39.31 20.1641 36.7262 22.6936 33.5639 22.6936Z" stroke="white" stroke-width="1.2"/>
</g>
<defs>
<clipPath id="clip0_404_184">
<rect width="40" height="34" fill="white"/>
</clipPath>
</defs>
</svg>
